<?xml version="1.0" encoding="utf-8"?>
<!DOCTYPE svg [
	<!ENTITY ns_flows "http://ns.adobe.com/Flows/1.0/">
]>
<svg version="1.2" baseProfile="tiny"
	 xmlns="http://www.w3.org/2000/svg" xmlns:xlink="http://www.w3.org/1999/xlink" xmlns:a="http://ns.adobe.com/AdobeSVGViewerExtensions/3.0/"
	 x="0px" y="0px" width="357px" height="249px" viewBox="0 1.2 357 249" xml:space="preserve">
<defs>
</defs>
<path fill-rule="evenodd" fill="#663399" d="M282.3,0c-51.9,40.6,66.1,114.9-8.2,131.8C327.3,99.5,202,31.6,282.3,0z"/>
<path fill-rule="evenodd" fill="#663399" d="M155.2,47.8c-62,22.8-60.1,115.7-114.3,142.3C78,143.3,84.8,53.7,155.2,47.8z"/>
<path fill-rule="evenodd" fill="#333399" d="M355.8,121.3c3.7,10-3.3,23.3-10.5,22.2c-6.8-3.5,2.9-9.2,1.2-15.2
	C239.5,159,157.4,227,50.2,249.7C154.3,210.6,243.9,144.8,355.8,121.3z"/>
<path fill-rule="evenodd" fill="#663399" d="M226.3,136.5C146.5,145.6,84.3,259.1,0,203C75.8,242.7,140.3,126.1,226.3,136.5z"/>
</svg>
