<?xml version="1.0" encoding="utf-8"?>
<!-- Generator: Adobe Illustrator 17.0.0, SVG Export Plug-In . SVG Version: 6.00 Build 0)  -->
<!DOCTYPE svg PUBLIC "-//W3C//DTD SVG 1.1//EN" "http://www.w3.org/Graphics/SVG/1.1/DTD/svg11.dtd">
<svg version="1.1" id="Layer_1" xmlns="http://www.w3.org/2000/svg" xmlns:xlink="http://www.w3.org/1999/xlink" x="0px" y="0px"
	 width="3578.75px" height="2200px" viewBox="0 0 3578.75 2200" enable-background="new 0 0 3578.75 2200" xml:space="preserve">
<g>
	<path fill="#E2E2E4" d="M1036.404,843.089c-13.967,20.866-30.817,40.614-50.576,59.158c-19.622,18.584-42.434,34.93-68.324,49.095
		c-25.864,14.122-54.497,25.317-85.762,33.589c-31.235,8.229-65.498,12.327-102.612,12.327c-61.886,0-119.012-10.86-171.606-32.497
		c-52.48-21.579-97.739-51.528-135.584-89.748c-37.925-38.304-67.398-83.704-88.754-136.269
		c-21.218-52.551-31.88-110.112-31.88-172.796c0-62.417,10.86-120.092,32.551-172.669c21.579-52.523,51.531-97.897,89.792-136.229
		c38.206-38.206,83.523-68.209,135.667-89.806c52.173-21.608,108.714-32.494,169.815-32.494c30.089,0,59.702,3.19,88.616,9.487
		c29.083,6.228,56.206,15.088,81.645,26.535c25.669,11.278,48.788,24.967,69.613,40.963c21.021,15.927,38.232,33.91,52.199,54.022
		L951.68,316.78c-8.509-13.113-19.986-26.268-34.176-39.381c-14.331-13.196-31.127-24.701-50.439-34.807
		c-19.284-9.977-40.39-18.192-63.173-24.265c-22.783-6.243-47.329-9.292-73.64-9.292c-53.322,0-101.044,9.627-143.114,28.857
		c-42.181,19.243-77.897,45.274-107.283,78.009c-29.335,32.746-51.726,70.645-67.206,113.807
		c-15.449,43.159-23.202,88.588-23.202,136.24c0,47.819,8.06,93.291,23.789,136.45c15.844,43.147,38.346,81.061,67.794,113.821
		c29.415,32.706,65.105,58.653,107.2,78.009c42.181,19.229,89.456,28.914,142.022,28.914c47.217,0,92.001-9.742,134.518-29.054
		c42.491-19.327,78.095-50.241,106.728-92.703L1036.404,843.089z"/>
	<path fill="#E2E2E4" d="M1258.841,523.178c14.666-31.685,39.072-56.79,73.053-75.432c34.065-18.475,70.367-27.753,108.966-27.753
		c68.854,0,120.356,20.476,154.81,61.411c34.4,40.992,51.557,95.082,51.557,162.368v332.605h-78.874V676.172
		c0-28.564-2.408-54.454-6.942-77.728c-4.617-23.176-12.456-42.993-23.818-59.662c-11.029-16.652-26.283-29.556-45.148-38.822
		c-18.951-9.321-42.715-13.895-71.29-13.895c-20.883,0-41.118,4.213-60.88,12.806c-19.676,8.409-37.226,21.298-52.649,38.722
		c-15.618,17.369-27.905,39.438-37.085,66.128c-9.349,26.589-14.024,58.12-14.024,94.466v278.19h-78.708V100h78.708v423.178
		H1258.841z"/>
	<path fill="#E2E2E4" d="M2193.201,625.343c0-46.842-12.373-81.803-37.143-104.81c-24.66-23.021-60.628-34.469-107.791-34.469
		c-32.439,0-62.585,5.738-90.519,17.466c-27.736,11.488-51.333,26.968-70.562,46.28l-44.085-52.144
		c22.448-22.422,51.949-41.035,88.728-55.672c36.724-14.681,78.178-22.001,124.584-22.001c29.361,0,56.819,4.016,82.319,12.175
		c25.526,8.088,47.919,20.252,67.203,36.458c19.424,16.288,34.371,36.779,45.205,61.494c10.86,24.701,16.317,53.643,16.317,86.922
		v237.648c0,20.84,0.699,42.574,2.322,64.965c1.456,22.365,3.781,41.27,6.83,56.721h-70.674c-2.267-13.07-4.17-27.458-5.85-42.809
		c-1.568-15.592-2.267-30.593-2.267-45.288h-2.296c-24.686,36.343-52.789,62.431-83.996,78.301
		c-31.322,15.815-69.109,23.763-112.967,23.763c-21.049,0-42.462-2.966-64.406-8.705c-22.084-5.836-42.181-15.34-60.264-28.521
		c-18.332-13.21-33.308-30.229-45.314-51.207c-12.009-20.937-17.942-46.521-17.942-76.707c0-41.984,10.665-75.082,31.909-99.476
		c21.215-24.434,49.682-42.586,85.203-54.707c35.575-12.006,76.272-19.734,122.259-23.23c45.959-3.5,93.655-5.248,143.197-5.248
		V625.343z M2169.968,705.154c-32.497,0-65.019,1.33-97.963,4.044c-32.777,2.66-62.531,8.16-89.232,16.277
		c-26.675,8.034-48.366,19.874-65.469,35.337c-17.045,15.409-25.5,35.91-25.5,61.411c0,19.298,3.669,35.506,11.058,48.633
		c7.277,13.21,17.102,23.804,29.585,31.992c12.316,8.02,26.059,13.826,41.061,17.269c15.03,3.471,30.399,5.208,45.847,5.208
		c27.767,0,52.483-4.718,74.119-14.457c21.579-9.587,39.857-22.714,54.692-39.396c14.583-16.587,25.695-35.758,33.419-57.409
		c7.724-21.551,11.616-44.434,11.616-68.324v-40.585H2169.968z"/>
	<path fill="#E2E2E4" d="M2758.905,562.545c-11.588-22.462-29.249-40.766-52.76-55.082c-23.597-14.193-50.438-21.399-80.585-21.399
		c-13.881,0-27.848,1.582-41.677,4.574c-13.967,3.081-26.337,8.232-37.168,15.019c-10.748,7.068-19.427,15.91-25.947,26.701
		c-6.635,10.874-9.992,23.637-9.992,38.263c0,25.555,10.467,45.062,31.319,58.567c20.909,13.548,53.74,25.01,98.524,34.259
		c64.182,13.141,111.569,32.219,142.079,57.381c30.479,25.133,45.761,58.891,45.761,101.394c0,30.929-5.987,57.002-18.025,78.261
		c-11.978,21.284-27.512,38.682-46.965,52.173c-19.287,13.52-41.035,23.147-65.469,28.983c-24.268,5.836-48.788,8.705-73.557,8.705
		c-41.006,0-80.78-8.521-119.517-25.583c-38.544-16.962-70.172-43.551-94.97-79.923l62.586-46.38
		c13.91,23.944,34.371,43.987,61.494,60.25c27.011,16.288,56.762,24.434,89.316,24.434c16.905,0,33.225-1.568,48.59-4.703
		c15.506-3.121,28.885-8.495,40.668-16.274c11.476-7.67,20.771-17.538,27.768-29.559c6.942-11.952,10.441-26.802,10.441-44.672
		c0-28.55-13.883-49.975-41.23-64.251c-27.318-14.302-67.037-27.653-118.791-39.997c-16.26-3.821-33.362-8.705-51.585-14.486
		c-18.108-5.778-34.958-14.302-50.324-25.512c-15.618-11.224-28.355-25.331-38.346-42.293
		c-9.966-17.031-15.116-38.289-15.116-63.732c0-27.851,5.403-51.657,16.349-71.305c10.774-19.705,25.217-36.022,43.469-48.662
		c17.997-12.749,38.793-22.307,61.995-28.424c23.15-6.24,47.051-9.278,71.823-9.278c37.871,0,74.48,8.51,110.084,25.472
		c35.575,17.031,62.333,40.978,80.052,71.947L2758.905,562.545z"/>
	<path fill="#E2E2E4" d="M3478.749,688.92c0,5.388,0,11.195,0,17.355c0,6.254-0.418,12.806-1.118,19.745h-449.8
		c0.782,27.025,6.243,52.511,16.292,76.512c9.934,24.001,23.929,44.784,41.62,62.514c17.773,17.802,38.682,31.981,62.614,42.434
		c23.904,10.384,49.96,15.661,77.728,15.661c40.978,0,76.272-9.544,106.083-28.481c29.751-18.934,52.227-40.737,67.845-65.523
		l59.032,46.395c-32.468,40.963-68.266,70.339-107.229,88.054c-38.963,17.845-80.975,26.759-125.73,26.759
		c-40.221,0-77.533-7.234-111.875-21.525c-34.428-14.288-64.013-34.133-88.757-59.616c-24.686-25.543-44.225-55.658-58.527-90.465
		c-14.276-34.764-21.413-72.649-21.413-113.583c0-40.949,6.859-78.848,20.854-113.638c13.967-34.807,33.279-64.896,57.937-90.451
		c24.715-25.414,53.715-45.343,87.051-59.659c33.222-14.219,69.189-21.413,107.817-21.413c42.405,0,79.883,7.194,112.351,21.413
		c32.497,14.317,59.479,33.546,81.199,57.925c21.637,24.434,37.982,52.732,49.206,85.16
		C3473.209,617.043,3478.749,651.861,3478.749,688.92z M3398.812,663.449c-2.353-51.067-18.811-93.374-49.321-126.988
		c-30.537-33.643-73.947-50.396-130.319-50.396c-26.395,0-50.579,4.801-73.082,14.471c-22.448,9.656-42.181,22.798-59.172,39.338
		c-16.879,16.695-30.565,35.589-40.556,56.848c-10.02,21.273-15.844,43.428-17.326,66.727H3398.812z"/>
</g>
<g>
	<path fill="#909091" d="M1271.771,1281.257h135.836c24.491,0,46.575,2.631,66.421,7.81c19.957,5.151,37.031,13.127,51.304,23.763
		c14.302,10.608,25.191,23.958,32.918,40.08c7.641,16.068,11.559,34.933,11.559,56.624c0,21.749-3.918,40.671-11.897,56.707
		c-7.919,16.094-18.92,29.418-33.222,40.055c-14.331,10.608-31.491,18.584-51.614,24.127c-20.209,5.374-42.488,8.06-66.842,8.06
		h-85.535v223.277h-48.928V1281.257z M1320.699,1497.117h82.738c38.458,0,67.708-7.446,87.582-22.422
		c19.928-14.918,29.863-36.638,29.863-65.16c0-29.837-10.244-51.668-30.843-65.523c-20.545-13.715-49.375-20.631-86.601-20.631
		h-82.738V1497.117z"/>
	<path fill="#909091" d="M1895.526,1603.031c0,24.016-4.199,46.128-12.482,66.421c-8.341,20.404-19.986,38.094-34.905,53.041
		c-14.947,14.918-32.886,26.532-53.712,34.959c-20.826,8.369-43.609,12.568-68.547,12.568c-24.379,0-46.968-4.199-67.791-12.568
		c-20.909-8.427-38.739-20.04-53.603-34.959c-15.002-14.947-26.73-32.637-34.959-53.041c-8.481-20.292-12.68-42.405-12.68-66.421
		c0-23.961,4.199-46.157,12.68-66.532c8.229-20.35,19.957-38.011,34.959-53.013c14.864-14.807,32.694-26.535,53.603-34.933
		c20.823-8.341,43.411-12.482,67.791-12.482c24.939,0,47.722,4.142,68.547,12.482c20.826,8.398,38.765,20.126,53.712,34.933
		c14.918,15.001,26.564,32.663,34.905,53.013C1891.328,1556.874,1895.526,1579.069,1895.526,1603.031z M1846.684,1603.031
		c0-17.69-2.797-34.259-8.395-49.992c-5.767-15.449-13.743-29.109-24.102-40.639c-10.438-11.588-23.118-20.714-38.037-27.487
		c-14.975-6.773-31.657-10.218-50.27-10.218c-18.53,0-35.127,3.445-49.877,10.218c-14.724,6.773-27.151,15.899-37.647,27.487
		c-10.441,11.531-18.475,25.191-24.015,40.639c-5.71,15.732-8.564,32.302-8.564,49.992c0,17.633,2.855,34.314,8.564,49.848
		c5.54,15.592,13.574,29.195,24.015,40.7c10.496,11.559,22.924,20.571,37.647,27.206c14.75,6.521,31.347,9.797,49.877,9.797
		c18.613,0,35.294-3.276,50.27-9.797c14.919-6.635,27.598-15.646,38.037-27.206c10.359-11.505,18.335-25.108,24.102-40.7
		C1843.887,1637.344,1846.684,1620.663,1846.684,1603.031z"/>
	<path fill="#909091" d="M2222.086,1708.216c-13.574,20.376-31.239,35.773-53.013,46.128
		c-21.694,10.413-44.056,15.675-67.177,15.675c-24.855,0-47.415-4.451-67.484-12.99c-20.152-8.536-37.254-20.376-51.64-35.24
		c-14.219-14.973-25.36-32.608-33.282-52.927c-7.836-20.49-11.837-42.322-11.837-65.833c0-23.511,4.001-45.569,11.837-65.862
		c7.922-20.376,19.063-38.037,33.282-52.927c14.385-14.976,31.488-26.759,51.64-35.38c20.069-8.51,42.629-12.792,67.484-12.792
		c23.121,0,45.483,5.262,67.177,15.87c21.774,10.636,39.438,26.423,53.013,47.191h1.287v-250.397h46.24v513.027h-46.24v-53.546
		H2222.086z M1986.579,1603.031c0,17.633,2.686,34.314,8.034,49.848c5.512,15.592,13.267,29.195,23.483,40.7
		c10.189,11.559,22.729,20.571,37.701,27.206c14.864,6.521,31.826,9.797,50.857,9.797c17.69,0,34.036-3.276,48.871-9.797
		c14.893-6.635,27.851-15.48,38.682-26.87c10.917-11.336,19.427-24.772,25.443-40.39c6.131-15.563,9.18-32.525,9.18-50.493
		c0-18.137-3.049-34.933-9.18-50.605c-6.016-15.621-14.526-29.224-25.443-40.754c-10.831-11.533-23.789-20.602-38.682-27.094
		c-14.835-6.607-31.181-9.883-48.871-9.883c-19.031,0-35.993,3.445-50.857,10.218c-14.973,6.773-27.512,15.899-37.701,27.487
		c-10.215,11.531-17.971,25.191-23.483,40.639C1989.265,1568.771,1986.579,1585.34,1986.579,1603.031z"/>
	<path fill="#909091" d="M2415.524,1321.954c0,9.573-3.273,17.355-10.244,23.514c-6.69,6.099-14.219,9.068-22.419,9.068
		c-8.117,0-15.563-2.969-22.365-9.068c-6.747-6.159-10.161-13.941-10.161-23.514c0-9.432,3.414-17.24,10.161-23.342
		c6.801-6.159,14.248-9.152,22.365-9.152c8.2,0,15.729,2.992,22.419,9.152C2412.251,1304.714,2415.524,1312.521,2415.524,1321.954z
		 M2405.979,1761.762h-46.071v-317.603h46.071V1761.762z"/>
	<path fill="#909091" d="M2695.145,1556.232c0-27.375-7.278-47.836-21.694-61.299c-14.497-13.548-35.546-20.238-63.199-20.238
		c-18.98,0-36.667,3.445-52.93,10.218c-16.262,6.773-30.034,15.841-41.341,27.177l-25.836-30.594
		c13.073-13.127,30.399-24.013,51.949-32.634c21.525-8.51,45.735-12.792,72.941-12.792c17.159,0,33.281,2.322,48.171,7.108
		c14.976,4.787,28.045,11.898,39.41,21.359c11.281,9.516,20.069,21.551,26.423,35.939c6.326,14.497,9.461,31.488,9.461,50.94
		v139.109c0,12.287,0.501,24.939,1.37,38.066c0.951,13.073,2.324,24.156,4.087,33.17h-41.342c-1.37-7.615-2.548-16.01-3.5-25.108
		c-0.894-9.069-1.258-17.802-1.258-26.478h-1.427c-14.388,21.327-30.763,36.581-49.066,45.819
		c-18.587,9.349-40.473,14.024-66.281,14.024c-12.233,0-24.772-1.708-37.647-5.151c-12.933-3.359-24.687-8.931-35.294-16.655
		c-10.694-7.782-19.51-17.744-26.535-30.032c-6.97-12.233-10.47-27.209-10.47-44.896c0-24.549,6.271-43.973,18.616-58.22
		c12.482-14.302,29.051-24.967,49.989-31.992c20.768-7.025,44.643-11.617,71.542-13.631c26.842-2.098,54.944-3.161,83.859-3.161
		V1556.232z M2681.542,1603.031c-18.977,0-38.094,0.754-57.381,2.35c-19.229,1.596-36.555,4.732-52.23,9.516
		c-15.618,4.675-28.409,11.645-38.26,20.742c-10.02,9.04-15.03,21.021-15.03,35.856c0,11.362,2.181,20.851,6.437,28.547
		c4.282,7.727,10.103,13.941,17.269,18.699c7.223,4.729,15.254,8.06,24.185,10.132c8.788,2.015,17.575,3.107,26.813,3.107
		c16.263,0,30.763-2.826,43.414-8.51c12.677-5.569,23.259-13.322,31.823-23.09c8.65-9.742,15.171-20.826,19.705-33.589
		c4.563-12.651,6.859-26.002,6.859-40.026v-23.735H2681.542z"/>
	<path fill="#909091" d="M2959.815,1482.812h-89.594v185.324c0,11.783,1.175,21.496,3.442,29.221
		c2.21,7.699,5.457,13.66,9.851,17.971c4.256,4.225,9.266,7.303,15.257,8.842c5.85,1.542,12.175,2.353,18.919,2.353
		c6.326,0,13.073-0.868,20.04-2.688c7.082-1.903,13.743-4.311,20.126-7.472l1.958,39.997c-8.088,3.247-16.624,5.543-25.469,7.137
		c-8.79,1.596-18.363,2.35-28.831,2.35c-8.51,0-17.661-1.089-27.151-3.414c-9.544-2.239-18.249-6.495-26.449-12.82
		c-8.117-6.351-14.778-14.918-20.011-25.778c-5.237-10.86-7.756-25.162-7.756-42.795v-198.227h-65.888v-38.653h65.888v-89.622
		h46.073v89.622h89.594V1482.812z"/>
	<path fill="#909091" d="M2997.156,1480.743c-0.421-13.548-1.12-25.667-2.015-36.584h44.084c0.837,8.593,1.565,18.025,1.986,28.55
		c0.476,10.413,0.728,18.977,0.728,25.778h1.287c9.152-18.584,22.783-33.614,40.837-45.202
		c18.083-11.476,38.43-17.214,61.018-17.214c5.879,0,11.253,0.14,15.982,0.588c4.786,0.476,9.602,1.399,14.612,2.743l-6.214,44.085
		c-2.659-0.868-7.194-1.737-13.603-2.743c-6.214-0.84-12.597-1.204-18.865-1.204c-12.147,0-23.987,2.21-35.323,6.718
		c-11.336,4.477-21.244,11.588-29.587,21.327c-8.283,9.656-15.059,22.055-20.318,37.226c-5.208,15.059-7.839,33.253-7.839,54.469
		v162.483h-46.128v-247.657C2997.798,1505.512,2997.52,1494.374,2997.156,1480.743z"/>
	<path fill="#909091" d="M3317.416,1712.22h1.456l98.413-268.061h50.212l-158.115,399.782c-9.573,24.434-21.608,43.97-36.329,58.693
		c-14.669,14.666-35.772,22.084-63.537,22.084c-14.024,0-27.71-1.456-41.342-4.001l4.787-42.181
		c10.831,3.637,22.112,5.486,33.895,5.486c15.787,0,28.352-4.927,37.338-14.612c9.097-9.797,16.934-23.623,23.652-41.789
		l25.919-66.475l-135.833-316.987h51.585L3317.416,1712.22z"/>
</g>
<g>
	<path fill="#682D86" d="M100.001,1105.985c309.626,169.029-248.577,664.647,158.619,688.887
		C-50.585,1670.878,551.843,1202.578,100.001,1105.985z"/>
	<path fill="#682D86" d="M533.397,1192.417c347.411,66.057,418.759,558.399,728.271,651.466
		C1024.733,1629.173,910.393,1161.91,533.397,1192.417z"/>
	<path fill="#682D86" d="M362.659,1810.547c408.541-18.361,820.217,529.318,1194.189,162.902
		C1211.145,2246.239,785.25,1684.034,362.659,1810.547z"/>
</g>
</svg>
