<svg version="1" xmlns="http://www.w3.org/2000/svg" width="1000" height="1000" viewBox="0 0 750.000000 750.000000"><path d="M53 154.9c23.9 15.7 36 38.3 36.4 67.6.1 10.2-.7 21.5-1.9 27.5-.3 1.4-.9 4.7-1.5 7.5-1.5 8-1.7 8.9-4.9 20.8-1.7 6.2-8 26.3-14.1 44.7-11.2 33.7-17.4 55.3-18.5 64.5-.4 2.7-.9 5.9-1.2 6.9-.9 3.3-.4 20.6.8 26.5 1.6 8 5.3 15.1 10.7 20.8 9.5 10 18.1 13.8 42.2 18.8.8.1 4.9.6 9 1l7.5.6-6.4-3.1c-16.4-7.9-26.8-18.4-32-32.4-2.8-7.4-3.5-12-3.5-21.6.1-22.9 4.2-37.3 28.7-100.5 4.9-12.6 12.3-33.6 13.3-37.5.2-.8 1.2-4.9 2.3-9.1 3.1-12 4.3-19.7 4.6-29.9 1-31.5-12.2-52.1-42.7-66.5-8-3.8-31.5-11.5-35.1-11.5-.6 0 2.2 2.2 6.3 4.9zM245 189c-.9.6-.1 1.1 2.6 1.5 7.4 1.3 27.9 8.6 38.4 13.7 28.8 14 60.4 40.7 85.5 72.3 2.1 2.8 4.2 5.2 4.5 5.5 2.4 2 30.9 41.5 53.8 74.5 40.3 58 70.9 90.8 103.4 110.6 10 6.2 33.9 16.9 37.5 16.9.4 0-3.5-4.2-8.7-9.3-23.8-23.6-44.2-50.7-85.5-113.2-18.4-28-34.4-51.2-44.8-65-5.5-7.3-16.5-21.3-17.7-22.5-.3-.3-3.4-3.9-6.9-8-9.3-10.7-25.6-26.8-35.8-35.2-26-21.3-58.5-36.5-85.8-40.3-2.3-.3-5.2-.8-6.5-1.1-4.4-.9-32.7-1.2-34-.4zM212.8 460.5c-.2.1-4.1.5-8.8.8-4.7.4-11 1.1-14 1.7-3 .6-7.1 1.3-9 1.6-1.9.3-3.8.8-4.1 1-.3.2-1.9.6-3.5.9-9 1.6-8.8 2.3.6 2.5 29.6.5 55 5.2 88.5 16.2 10.6 3.5 37.6 13.7 39 14.8.6.4 2.1 1.1 3.5 1.5 3.8 1.2 35.9 16 61.5 28.5 34.2 16.7 50.9 24.7 62 29.7 5.5 2.5 12.5 5.6 15.5 7 23 10.5 52.2 20.7 75.5 26.3 14.4 3.5 18.4 4.2 29 5.5 1.7.2 5.4.7 8.4 1 6.8.8 26.9.9 34.1 0 4.8-.5 8.9-1.1 19-2.9 26-4.5 60.9-22.5 84.2-43.4 11.3-10.2 11.5-10.6 3.3-4.9-29.7 20.2-57.1 28.6-92.2 28.2-9.3-.1-18.6-.5-20.8-.9-2.2-.4-7.1-1.1-11-1.7-5.7-.9-15.2-2.9-25.5-5.4-23.1-5.7-69.6-23.6-112.6-43.5-3.8-1.8-8.2-3.8-9.9-4.5-1.6-.8-8.2-3.7-14.5-6.6-60.1-27.1-99.9-41.3-136.5-48.4-6.6-1.2-14.7-2.6-18-3-3.3-.3-7.5-.9-9.3-1.1-3.4-.6-33.9-1.3-34.4-.9z"/></svg>